# xmcd CD database file
#
# Track frame offsets:
#	150
#	11562
#	20269
#	28208
#	38044
#	51965
#	59155
#	66595
#	77829
#	87830
#	98175
#	110679
#	120685
#	136117
#	144688
#	154167
#	161788
#	176284
#	190352
#	199012
#	208265
#	216118
#
# Disc length: 3005 seconds
#
# Revision: 0
# Processed by: cddbd v1.5.2PL0 Copyright (c) Steve Scherf et al.
# Submitted via: CDex 1.51
#
DISCID=470bbb16
DTITLE=Alexander Peterson - Jazz on the classical guitar
DYEAR=2008
DGENRE=Jazz
TTITLE0=Wave
TTITLE1=Lover man
TTITLE2=Jazz'n'samba
TTITLE3=Body and soul
TTITLE4=Autumn leavels
TTITLE5=All of me
TTITLE6=The shadow of your smile
TTITLE7=Basin street blues
TTITLE8=You don't know what love is
TTITLE9=Tea for two
TTITLE10=The days of wine and roses
TTITLE11=Desafinado
TTITLE12=Round midnight
TTITLE13=Blue moon
TTITLE14=Sophisticated lady
TTITLE15=Bye bye blackbird
TTITLE16=Embraceable you
TTITLE17=Aday in the life of a fool
TTITLE18=One note samba
TTITLE19=Michel
TTITLE20=The girl from lpanema
TTITLE21=Tequila
EXTD=YEAR: 2008
EXTT0=
EXTT1=
EXTT2=
EXTT3=
EXTT4=
EXTT5=
EXTT6=
EXTT7=
EXTT8=
EXTT9=
EXTT10=
EXTT11=
EXTT12=
EXTT13=
EXTT14=
EXTT15=
EXTT16=
EXTT17=
EXTT18=
EXTT19=
EXTT20=
EXTT21=
PLAYORDER=
